<?xml version="1.0" encoding="UTF-8"?>
<svg xmlns="http://www.w3.org/2000/svg" viewBox="0 0 24 24">
    <path d="M 12 2 C 9.8 2 7.6875 2.80625 6.1875 4.40625 C 4.7875 5.90625 4 7.9 4 10 L 4 10.40625 C 3 11.20625 3 12.50625 3 12.90625 C 3 14.20625 3.9875 15.2875 5.1875 15.6875 C 6.1875 19.5875 9.4 21.90625 12 21.90625 C 14.6 21.90625 17.8125 19.5875 18.8125 15.6875 C 20.0125 15.3875 21 14.3 21 13 C 21 12.5 21 11.3 20 10.5 L 20 10.09375 C 20 7.99375 19.2125 6 17.8125 4.5 C 16.3125 2.8 14.2 2 12 2 z M 9 7 C 12.5 11.5 15.6 5.89375 18 11.59375 C 18 11.59375 19.2 11.9 19 13 C 18.8 14.4 17.1875 14.09375 17.1875 14.09375 L 17 14.8125 C 16.3 18.2125 13.6 20 12 20 C 10.4 20 7.7 18.2125 7 14.8125 L 6.90625 14.09375 C 6.90625 14.09375 5.09375 14.2 5.09375 13 C 5.09375 11.7 6.09375 11.59375 6.09375 11.59375 L 7 12 C 7 9.9 7.8 7.5 9 7 z M 9.5 11 C 8.6715729 11 8 11.671573 8 12.5 C 8 13.328427 8.6715729 14 9.5 14 C 10.328427 14 11 13.328427 11 12.5 C 11 11.671573 10.328427 11 9.5 11 z M 14.5 11 C 13.671573 11 13 11.671573 13 12.5 C 13 13.328427 13.671573 14 14.5 14 C 15.328427 14 16 13.328427 16 12.5 C 16 11.671573 15.328427 11 14.5 11 z"/>
</svg>